<?xml version="1.0" encoding="utf-8"?>
<!-- Generator: Adobe Illustrator 16.0.0, SVG Export Plug-In . SVG Version: 6.00 Build 0)  -->
<!DOCTYPE svg PUBLIC "-//W3C//DTD SVG 1.1//EN" "http://www.w3.org/Graphics/SVG/1.1/DTD/svg11.dtd">
<svg version="1.1" id="Layer_1" xmlns="http://www.w3.org/2000/svg" xmlns:xlink="http://www.w3.org/1999/xlink" x="0px" y="0px"
	 width="188px" height="107px" viewBox="0 0 188 107" enable-background="new 0 0 188 107" xml:space="preserve">
<g>
	<path fill="#F1F11B" d="M-1.013,68.711c0.348,1.089,1.422,1.487,2.418,1.93C0.856,69.538,0.131,68.924-1.013,68.711z"/>
	<path fill="#F1F11B" d="M1.42,70.665l0.021-0.007c-0.015-0.006-0.023-0.012-0.035-0.018C1.411,70.65,1.417,70.654,1.42,70.665z"/>
	<path fill="#F1F11B" d="M180.34,35.166c-0.1,0.028-0.215,0.06-0.33,0.091C180.126,35.273,180.242,35.267,180.34,35.166z"/>
	<path fill="#F1F11B" d="M50.552,79.604l0.163-1.576c2.342,0.016,0.681,1.826,2.827,1.426c0.83-2.242,3.555,0.197,4.285-0.997
		c-0.014,0.177,1.034,0.233,0.979,0.935c0.3-1.218,1.073-0.293,1.727-0.611c0.232-0.338-0.184-0.359-0.369-0.725
		c0,0,0.375-0.111,0.75-0.223c0.37-0.117,0.74-0.234,0.74-0.234c0.59,0.37,0.753,1.079,0.123,1.232
		c1.933,0.137,7.662,0.419,13.246,0.365c1.404-0.014,2.811-0.025,4.164-0.038c1.333-0.036,2.612-0.082,3.782-0.14
		c2.335-0.115,4.243-0.271,5.24-0.488c-0.572-0.877-1.799-0.186-2.366-1.592c1.022-0.873,1.605,0.186,2.019-0.694
		c0.548,2.11,2.366,0.354,3.316,2.465l0.223-1.233l0.578,0.707c4.582-1.58,1.037-0.688,5.175-0.686
		c2.35-0.35,3.357-2.107,4.715-1.58c-0.196,0.001-0.77-0.704-0.178-1.057c0.178,1.057,1.578-0.877,1.949,0.178
		c0.598-0.18,2.522-0.165,1.775-1.578c0.375,0.705,2.105,0.891,1.129,1.588c0.58,0.006,1.15,0.184,1.547-0.165l-0.769-0.356
		c1.937-0.338,3.069,0.72,4.255-0.681l-0.756-0.53c1.16-0.168,2.135-0.342,2.664,1.076l-1.159,0.514
		c1.92-0.155,3.047-0.303,4.597-1.158l-0.568-0.01c1.97-1.582,12.414-3.236,14.176-5.016l-0.869-1.104l1.561-0.968
		c-0.189-0.012-0.688,3.646-0.848,3.283c0.838-0.047,2.557-0.143,4.711-0.262c0.27-0.016,0.546-0.029,0.828-0.047
		c0.293-0.018,0.455-0.012,0.695-0.02c0.447-0.011,0.908-0.021,1.382-0.033c0.472-0.016,1.01,0.023,1.522,0.033
		c0.524,0.02,1.036,0.02,1.605,0.074c4.369,0.29,9.498,1.229,11.021,1.879c1.168,0.842-0.086,1.789-0.132,1.963
		c1.63-0.131,0.872-1.051,2.193-0.713c0.341,0.269-0.239,0.85-0.474,0.969c0.621-0.021,1.117,0.463,1.256-0.045
		c-0.684-0.535-0.114-1.842-0.272-2.787l1.747,0.438l-0.234,0.849c0.391,0.099,1.411-2.179,3.139-1.402
		c2.97,0.9,6.49,1.152,9.935,1.695c-0.104,0.517-0.864,0.75-1.634,0.979c0.465,0.076,1.188,0.018,1.58,0.438
		c-0.744-1.013,1.518-0.467,0.9-0.922c1.354-0.933,2.881-0.912,4.324-0.773c1.512,0.068,2.984,0.242,4.193-0.512
		c0.104-0.967,1.265-9.295,1.629-17.639c0.457-8.356-0.012-16.773-0.145-17.896c0.283,0.012,0.567,0.034,0.682,0.215
		c-0.155-0.529-0.717-0.744-0.971-0.399l0.062,1.229c-0.677,0.515-0.197-0.688-0.945-0.58c-0.048-0.5,0.1-0.811,0.324-1.005
		c0.217-0.203,0.46-0.331,0.712-0.401c-0.233-0.034-0.476-0.216-0.668-0.248c-0.226-0.057-0.401,0.039-0.481,0.592
		c-0.514-0.399-0.01-1.23-0.598-1.635c-0.351,0.341-1.029,1.28-1.563,0.685l0.014-0.177c-0.614-0.502-1.243-0.198-1.815,0.157
		c-0.299,0.17-0.572,0.356-0.898,0.404c-0.329,0.043-0.669-0.025-1.021-0.32l0.197-0.317c-0.236-0.317-0.635-0.308-1.089-0.307
		c-0.483-0.018-1.043-0.057-1.519-0.433c0.268,0.241,0.434,0.997-0.217,1.029c-1.086-0.771-2.147-0.331-2.941-1.237
		c0,0-0.258,0.21-0.541,0.41c-0.283,0.2-0.564,0.401-0.564,0.401c-0.603-0.13-1.402-0.266-2.423-0.426
		c-1.063-0.16-2.306-0.346-3.667-0.55c-2.763-0.398-6.347-0.877-10.167-1.243c-0.979-0.084-1.905-0.187-2.918-0.25
		c-1.005-0.062-2-0.125-2.976-0.185c-2.045-0.064-3.961-0.15-5.891-0.093c-0.473,0.009-0.936,0.017-1.386,0.025
		c-0.438,0.011-0.933,0.013-1.229,0.04c-0.672,0.042-1.305,0.082-1.889,0.119c-1.166,0.064-2.138,0.118-2.848,0.157l0.219-0.16
		c-1.082,0.066-2.307,0.141-3.639,0.222c-1.309,0.091-2.721,0.19-4.203,0.293c-1.48,0.1-3.033,0.204-4.622,0.31
		c-1.563,0.133-3.162,0.268-4.765,0.404c-6.406,0.56-12.691,1.328-16.832,2.29c-1.36-0.875-3.152-0.521-4.504-0.703
		c0.772,0.353,0.564,1.056-0.019,1.056c-4.087,0.167-0.229,0.687-4.328,1.381c-2.358,0.615-8.052,0.96-13.631,1.011
		c-5.586,0.07-11-0.24-13.042-0.586c-2.162,1.516-4.854,0.413-6.972,1.353l0.211-0.338c-0.563,0.13-1.812,0.193-3.359,0.125
		c-1.546-0.071-3.422-0.206-5.307-0.34c-1.9-0.102-3.735-0.354-5.297-0.471c-1.557-0.128-2.812-0.182-3.46-0.088l0.329,0.222
		c-2.288,0.75-1.847-0.838-3.515-1.471c0.084,1.617-1.88,2.34-2.617,2.392l0.064-0.346c-0.554,0.08-1.487,0.416-2.509,0.718
		c-1.001,0.262-2.101,0.504-3,0.479l0.193-0.857c-0.797,0.358-1.878,0.338-2.889,0.223c-0.506-0.058-0.995-0.14-1.424-0.21
		c-0.417-0.097-0.774-0.18-1.035-0.211c-2.291-0.875-5.558-2.979-8.773-2.79c0,0-0.311-0.734-0.621-1.468
		c-0.298-0.729-0.596-1.458-0.596-1.458L10.624,33c0,0-0.725,1.769-1.837,4.486c-1.1,2.733-2.576,6.444-4,10.376
		C1.953,55.721-0.691,64.489,1.125,68.33l-0.334,0.814l1.104,0.19c1.174,0.772,2.036-0.04,1.72,0.776L1.877,69.52
		c1.227,0.604,0.201,0.801-0.436,1.138c0.522,0.231,1.023,0.479,1.389,0.86c0.347-0.254-0.094-0.402-0.248-0.643
		C3.37,70.773,4.551,70.246,5.3,70.87c1.312,0.442-0.264,1.396,1.284,1.916c2.022,0.61,4.029,1.217,6.03,1.821l3.014,0.892
		l2.99,0.703c1.999,0.454,4.012,0.885,6.044,1.249c2.002,0.277,4.027,0.502,6.078,0.648c0.154,0.379-0.066,0.346-0.317,0.485
		c1.251-0.073,2.428-0.009,3.562,0.017c1.125,0.002,2.222-0.002,3.337-0.138c0.591,0.425,0.728,0.972,0.891,1.345
		c-0.172-0.393,2.932-0.358,6.017-0.369C47.309,79.419,50.454,79.507,50.552,79.604z"/>
</g>
</svg>
